<svg width="28" height="20" viewBox="0 0 28 20" fill="none" xmlns="http://www.w3.org/2000/svg">
<g id="linkedin" filter="url(#filter0_d)">
<path id="Shape" fill-rule="evenodd" clip-rule="evenodd" d="M6 0H22C23.1 0 24 0.9 24 2V18C24 19.1 23.1 20 22 20H6C4.9 20 4 19.1 4 18V2C4 0.9 4.9 0 6 0ZM10 17V8H7V17H10ZM8.5 6.3C7.5 6.3 6.7 5.5 6.7 4.5C6.7 3.5 7.5 2.7 8.5 2.7C9.5 2.7 10.3 3.5 10.3 4.5C10.3 5.5 9.5 6.3 8.5 6.3ZM18 17H21V11.3C21 9.4 19.4 7.8 17.5 7.8C16.6 7.8 15.5 8.4 15 9.2V8H12V17H15V11.7C15 10.9 15.7 10.2 16.5 10.2C17.3 10.2 18 10.9 18 11.7V17Z" fill="white"/>
</g>
<defs>
<filter id="filter0_d" x="0" y="0" width="28" height="28" filterUnits="userSpaceOnUse" color-interpolation-filters="sRGB">
<feFlood flood-opacity="0" result="BackgroundImageFix"/>
<feColorMatrix in="SourceAlpha" type="matrix" values="0 0 0 0 0 0 0 0 0 0 0 0 0 0 0 0 0 0 127 0"/>
<feOffset dy="4"/>
<feGaussianBlur stdDeviation="2"/>
<feColorMatrix type="matrix" values="0 0 0 0 0 0 0 0 0 0 0 0 0 0 0 0 0 0 0.25 0"/>
<feBlend mode="normal" in2="BackgroundImageFix" result="effect1_dropShadow"/>
<feBlend mode="normal" in="SourceGraphic" in2="effect1_dropShadow" result="shape"/>
</filter>
</defs>
</svg>
